<?xml version="1.0" encoding="UTF-8" standalone="no"?>
<svg
   xmlns:osb="http://www.openswatchbook.org/uri/2009/osb"
   xmlns:dc="http://purl.org/dc/elements/1.1/"
   xmlns:cc="http://creativecommons.org/ns#"
   xmlns:rdf="http://www.w3.org/1999/02/22-rdf-syntax-ns#"
   xmlns:svg="http://www.w3.org/2000/svg"
   xmlns="http://www.w3.org/2000/svg"
   xmlns:xlink="http://www.w3.org/1999/xlink"
   xmlns:sodipodi="http://sodipodi.sourceforge.net/DTD/sodipodi-0.dtd"
   xmlns:inkscape="http://www.inkscape.org/namespaces/inkscape"
   width="196.50267mm"
   height="134.43321mm"
   viewBox="0 0 196.50267 134.43321"
   version="1.1"
   id="svg133"
   sodipodi:docname="favicon.svg"
   inkscape:version="1.0.1 (3bc2e813f5, 2020-09-07)"
   inkscape:export-filename="/home/jd/Desktop/EXAMEN/slides/slide.poeritz.englisch.ernst-reuter.schule/2020-10-13/image/ers-logo-long-modern-1.png"
   inkscape:export-xdpi="72"
   inkscape:export-ydpi="72">
  <defs
     id="defs127">
    <linearGradient
       inkscape:collect="always"
       id="linearGradient912">
      <stop
         style="stop-color:#000000;stop-opacity:1;"
         offset="0"
         id="stop908" />
      <stop
         style="stop-color:#000000;stop-opacity:0;"
         offset="1"
         id="stop910" />
    </linearGradient>
    <linearGradient
       inkscape:collect="always"
       id="linearGradient904">
      <stop
         style="stop-color:#000000;stop-opacity:1;"
         offset="0"
         id="stop900" />
      <stop
         style="stop-color:#000000;stop-opacity:0;"
         offset="1"
         id="stop902" />
    </linearGradient>
    <linearGradient
       inkscape:collect="always"
       id="linearGradient896">
      <stop
         style="stop-color:#000000;stop-opacity:1;"
         offset="0"
         id="stop892" />
      <stop
         style="stop-color:#000000;stop-opacity:0;"
         offset="1"
         id="stop894" />
    </linearGradient>
    <linearGradient
       id="linearGradient2894"
       osb:paint="solid">
      <stop
         style="stop-color:#1bc02f;stop-opacity:1;"
         offset="0"
         id="stop2892" />
    </linearGradient>
    <radialGradient
       inkscape:collect="always"
       xlink:href="#linearGradient896"
       id="radialGradient922"
       cx="93.913986"
       cy="95.520134"
       fx="93.913986"
       fy="95.520134"
       r="25.148006"
       gradientTransform="matrix(1,0,0,0.28832204,0,67.979573)"
       gradientUnits="userSpaceOnUse" />
    <radialGradient
       inkscape:collect="always"
       xlink:href="#linearGradient904"
       id="radialGradient924"
       cx="-186.14903"
       cy="19.93364"
       fx="-186.14903"
       fy="19.93364"
       r="21.534962"
       gradientTransform="matrix(1,0,0,0.34349454,0,13.086544)"
       gradientUnits="userSpaceOnUse" />
    <radialGradient
       inkscape:collect="always"
       xlink:href="#linearGradient912"
       id="radialGradient926"
       cx="-177.36243"
       cy="186.06752"
       fx="-177.36243"
       fy="186.06752"
       r="25.944687"
       gradientTransform="matrix(1,0,0,0.285112,0,133.01744)"
       gradientUnits="userSpaceOnUse" />
  </defs>
  <sodipodi:namedview
     id="base"
     pagecolor="#ffffff"
     bordercolor="#666666"
     borderopacity="1.0"
     inkscape:pageopacity="0.0"
     inkscape:pageshadow="2"
     inkscape:zoom="0.61374354"
     inkscape:cx="424.57998"
     inkscape:cy="7.8598323"
     inkscape:document-units="mm"
     inkscape:current-layer="layer1"
     inkscape:document-rotation="0"
     showgrid="false"
     inkscape:window-width="1920"
     inkscape:window-height="1080"
     inkscape:window-x="0"
     inkscape:window-y="0"
     inkscape:window-maximized="1"
     inkscape:snap-text-baseline="true"
     inkscape:snap-global="false"
     inkscape:pagecheckerboard="true"
     borderlayer="false">
    <inkscape:grid
       type="xygrid"
       id="grid31"
       originx="-7.5819984"
       originy="-80.950066" />
  </sodipodi:namedview>
  <metadata
     id="metadata130">
    <rdf:RDF>
      <cc:Work
         rdf:about="">
        <dc:format>image/svg+xml</dc:format>
        <dc:type
           rdf:resource="http://purl.org/dc/dcmitype/StillImage" />
        <dc:title />
      </cc:Work>
    </rdf:RDF>
  </metadata>
  <g
     inkscape:label="Layer 1"
     inkscape:groupmode="layer"
     id="layer1"
     transform="translate(-7.5819983,-80.950066)">
    <g
       aria-label="S"
       id="text112"
       style="font-style:normal;font-weight:normal;font-size:158.75px;line-height:1.25;font-family:sans-serif;letter-spacing:0px;word-spacing:0px;fill:#70c02f;fill-opacity:1;stroke:#ffffff;stroke-width:3.666;stroke-linecap:square;stroke-linejoin:miter;stroke-miterlimit:4;stroke-dasharray:none;stroke-opacity:1;paint-order:stroke markers fill">
      <path
         d="m 199.53866,123.40074 h -30.30823 v -9.30176 q 0,-6.51123 -1.16272,-8.29406 -1.16272,-1.78284 -3.87573,-1.78284 -2.94556,0 -4.49585,2.40295 -1.47278,2.40296 -1.47278,7.28638 0,6.27869 1.70532,9.45679 1.62781,3.1781 9.22425,7.67395 21.78161,12.94494 27.44018,21.23901 5.65857,8.29407 5.65857,26.74256 0,13.41003 -3.1781,19.76623 -3.10059,6.3562 -12.09228,10.69702 -8.9917,4.26331 -20.92896,4.26331 -13.09998,0 -22.40173,-4.96094 -9.22425,-4.96094 -12.09229,-12.63489 -2.86804,-7.67395 -2.86804,-21.78161 v -8.21656 h 30.30823 v 15.27039 q 0,7.05383 1.24023,9.06921 1.31775,2.01538 4.57337,2.01538 3.25561,0 4.8059,-2.55798 1.62781,-2.55798 1.62781,-7.59643 0,-11.0846 -3.02307,-14.49524 -3.10059,-3.41065 -15.27039,-11.39466 -12.1698,-8.06152 -16.12304,-11.70471 -3.95325,-3.64319 -6.58875,-10.0769 -2.55798,-6.43372 -2.55798,-16.43311 0,-14.41772 3.64319,-21.083984 3.7207,-6.666259 11.93725,-10.386962 8.21656,-3.798218 19.84375,-3.798218 12.71241,0 21.62659,4.108276 8.9917,4.108277 11.85974,10.386963 2.94556,6.201175 2.94556,21.161495 z"
         style="font-style:normal;font-variant:normal;font-weight:normal;font-stretch:normal;font-size:158.75px;font-family:Impact;-inkscape-font-specification:Impact;fill:#70c02f;fill-opacity:1;stroke:#ffffff;stroke-width:3.666;stroke-linecap:square;stroke-linejoin:miter;stroke-miterlimit:4;stroke-dasharray:none;stroke-opacity:1;paint-order:stroke markers fill"
         id="path21" />
    </g>
    <g
       aria-label="R"
       id="text108"
       style="font-style:normal;font-weight:normal;font-size:158.75px;line-height:1.25;font-family:sans-serif;letter-spacing:0px;word-spacing:0px;fill:#70c02f;fill-opacity:1;stroke:#ffffff;stroke-width:3.6665;stroke-linecap:square;stroke-linejoin:miter;stroke-miterlimit:4;stroke-dasharray:none;stroke-opacity:1;paint-order:stroke markers fill"
       transform="matrix(0.99997594,0,0,0.99975153,-0.00293994,0.04743858)">
      <path
         d="m 65.698078,85.544113 h 23.099365 q 23.099367,0 31.238407,1.782837 8.21655,1.782837 13.33252,9.146729 5.19348,7.286381 5.19348,23.331911 0,14.65027 -3.64319,19.68872 -3.64319,5.03845 -14.34021,6.04614 9.68933,2.40296 13.02246,6.43372 3.33313,4.03076 4.10828,7.4414 0.85266,3.33313 0.85266,18.526 v 33.09876 h -30.30823 v -41.70288 q 0,-10.07691 -1.62781,-12.47986 -1.55029,-2.40295 -8.294065,-2.40295 v 56.58569 H 65.698078 Z m 32.633667,21.471557 v 27.90527 q 5.503545,0 7.673955,-1.47277 2.24792,-1.5503 2.24792,-9.84436 V 116.705 q 0,-5.96863 -2.17041,-7.82898 -2.0929,-1.86035 -7.751465,-1.86035 z"
         style="font-style:normal;font-variant:normal;font-weight:normal;font-stretch:normal;font-size:158.75px;font-family:Impact;-inkscape-font-specification:Impact;fill:#70c02f;fill-opacity:1;stroke:#ffffff;stroke-width:3.6665;stroke-linecap:square;stroke-linejoin:miter;stroke-miterlimit:4;stroke-dasharray:none;stroke-opacity:1;paint-order:stroke markers fill"
         id="path18" />
    </g>
    <g
       aria-label="E"
       id="text104"
       style="font-style:normal;font-weight:normal;font-size:158.75px;line-height:1.25;font-family:sans-serif;letter-spacing:0px;word-spacing:0px;fill:#70c02f;fill-opacity:1;stroke:#ffffff;stroke-width:3.666;stroke-linecap:square;stroke-linejoin:miter;stroke-miterlimit:4;stroke-dasharray:none;stroke-opacity:1;paint-order:stroke markers fill"
       inkscape:export-xdpi="9.0600004"
       inkscape:export-ydpi="9.0600004">
      <path
         d="M 9.4149983,85.544128 H 63.830281 V 110.65887 H 42.048665 v 23.797 h 20.386353 v 23.87451 H 42.048665 v 27.59522 h 45.302663 l -0.03611,25.09043 -77.9002157,0.0243 z"
         style="font-style:normal;font-variant:normal;font-weight:normal;font-stretch:normal;font-size:158.75px;font-family:Impact;-inkscape-font-specification:Impact;fill:#70c02f;fill-opacity:1;stroke:#ffffff;stroke-width:3.666;stroke-linecap:square;stroke-linejoin:miter;stroke-miterlimit:4;stroke-dasharray:none;stroke-opacity:1;paint-order:stroke markers fill"
         id="path15"
         sodipodi:nodetypes="ccccccccccccc" />
    </g>
    <g
       aria-label="REUTER"
       id="text840"
       style="font-size:17.6389px;line-height:1.25;font-family:sans-serif;letter-spacing:0px;word-spacing:0px;fill:#ffffff;fill-opacity:1;stroke:#ffffff;stroke-width:0.265;stroke-miterlimit:4;stroke-dasharray:none;stroke-opacity:0.89">
      <path
         d="m 68.898268,88.4017 h 2.566597 q 2.566598,0 3.470936,0.198093 0.912951,0.198094 1.481393,1.016304 0.577053,0.809598 0.577053,2.592436 0,1.627809 -0.404799,2.187637 -0.404799,0.559829 -1.593357,0.671795 1.076593,0.266995 1.446941,0.714857 0.370348,0.447863 0.456475,0.826824 0.09474,0.370348 0.09474,2.058446 v 3.677638 h -3.367583 v -4.633653 q 0,-1.119657 -0.180867,-1.386652 -0.172255,-0.266995 -0.921564,-0.266995 v 6.2873 h -3.625965 z m 3.625965,2.385731 v 3.100588 q 0.611505,0 0.852662,-0.163643 0.249769,-0.172255 0.249769,-1.093818 v -0.766534 q 0,-0.663182 -0.241157,-0.869888 -0.232544,-0.206705 -0.861274,-0.206705 z"
         style="font-style:normal;font-variant:normal;font-weight:normal;font-stretch:normal;font-size:17.6389px;font-family:Impact;-inkscape-font-specification:Impact;fill:#ffffff;fill-opacity:1;stroke:#ffffff;stroke-width:0.265;stroke-miterlimit:4;stroke-dasharray:none;stroke-opacity:0.89"
         id="path1583" />
      <path
         d="m 78.398125,88.4017 h 6.046146 v 2.79053 H 82.02409 v 2.644112 h 2.265152 v 2.652725 H 82.02409 v 3.066137 h 2.661338 v 2.790526 h -6.287303 z"
         style="font-style:normal;font-variant:normal;font-weight:normal;font-stretch:normal;font-size:17.6389px;font-family:Impact;-inkscape-font-specification:Impact;fill:#ffffff;fill-opacity:1;stroke:#ffffff;stroke-width:0.265;stroke-miterlimit:4;stroke-dasharray:none;stroke-opacity:0.89"
         id="path1585" />
      <path
         d="m 93.969966,88.4017 v 9.31899 q 0,1.584745 -0.103353,2.230701 -0.103353,0.637339 -0.611505,1.317749 -0.508152,0.67179 -1.343588,1.02492 -0.826823,0.34451 -1.955093,0.34451 -1.248848,0 -2.204863,-0.41341 -0.956014,-0.41342 -1.429715,-1.0766 -0.473701,-0.66318 -0.559829,-1.395262 -0.08613,-0.740696 -0.08613,-3.100588 V 88.4017 h 3.625965 v 10.455872 q 0,0.912951 0.09474,1.171338 0.103353,0.24976 0.404799,0.24976 0.344509,0 0.43925,-0.2756 Q 90.344,99.718847 90.344,98.676704 V 88.4017 Z"
         style="font-style:normal;font-variant:normal;font-weight:normal;font-stretch:normal;font-size:17.6389px;font-family:Impact;-inkscape-font-specification:Impact;fill:#ffffff;fill-opacity:1;stroke:#ffffff;stroke-width:0.265;stroke-miterlimit:4;stroke-dasharray:none;stroke-opacity:0.89"
         id="path1587" />
      <path
         d="m 102.67745,88.4017 v 2.79053 h -2.15318 v 11.1535 H 96.8983 V 91.19223 H 94.753726 V 88.4017 Z"
         style="font-style:normal;font-variant:normal;font-weight:normal;font-stretch:normal;font-size:17.6389px;font-family:Impact;-inkscape-font-specification:Impact;fill:#ffffff;fill-opacity:1;stroke:#ffffff;stroke-width:0.265;stroke-miterlimit:4;stroke-dasharray:none;stroke-opacity:0.89"
         id="path1589" />
      <path
         d="m 103.50427,88.4017 h 6.04615 v 2.79053 h -2.42018 v 2.644112 h 2.26515 v 2.652725 h -2.26515 v 3.066137 h 2.66134 v 2.790526 h -6.28731 z"
         style="font-style:normal;font-variant:normal;font-weight:normal;font-stretch:normal;font-size:17.6389px;font-family:Impact;-inkscape-font-specification:Impact;fill:#ffffff;fill-opacity:1;stroke:#ffffff;stroke-width:0.265;stroke-miterlimit:4;stroke-dasharray:none;stroke-opacity:0.89"
         id="path1591" />
      <path
         d="m 110.83372,88.4017 h 2.5666 q 2.56659,0 3.47093,0.198093 0.91295,0.198094 1.4814,1.016304 0.57705,0.809598 0.57705,2.592436 0,1.627809 -0.4048,2.187637 -0.4048,0.559829 -1.59336,0.671795 1.0766,0.266995 1.44694,0.714857 0.37035,0.447863 0.45648,0.826824 0.0947,0.370348 0.0947,2.058446 v 3.677638 h -3.36758 v -4.633653 q 0,-1.119657 -0.18087,-1.386652 -0.17226,-0.266995 -0.92157,-0.266995 v 6.2873 h -3.62596 z m 3.62596,2.385731 v 3.100588 q 0.61151,0 0.85267,-0.163643 0.24977,-0.172255 0.24977,-1.093818 v -0.766534 q 0,-0.663182 -0.24116,-0.869888 -0.23255,-0.206705 -0.86128,-0.206705 z"
         style="font-style:normal;font-variant:normal;font-weight:normal;font-stretch:normal;font-size:17.6389px;font-family:Impact;-inkscape-font-specification:Impact;fill:#ffffff;fill-opacity:1;stroke:#ffffff;stroke-width:0.265;stroke-miterlimit:4;stroke-dasharray:none;stroke-opacity:0.89"
         id="path1593" />
    </g>
    <g
       aria-label="ERNST"
       transform="rotate(-90)"
       id="text844"
       style="font-style:normal;font-variant:normal;font-weight:normal;font-stretch:normal;font-size:17.6389px;line-height:1.25;font-family:Impact;-inkscape-font-specification:Impact;letter-spacing:0px;word-spacing:0px;fill:#ffffff;fill-opacity:1;stroke:#7a7a7a;stroke-width:0.264583;stroke-opacity:0">
      <path
         d="m -207.55171,12.961623 h 6.04615 v 2.79053 h -2.42018 v 2.644112 h 2.26515 v 2.652726 h -2.26515 v 3.066137 h 2.66134 v 2.790529 h -6.28731 z"
         style="font-style:normal;font-variant:normal;font-weight:normal;font-stretch:normal;font-size:17.6389px;font-family:Impact;-inkscape-font-specification:Impact;fill:#ffffff;fill-opacity:1;stroke:#7a7a7a;stroke-width:0.264583;stroke-opacity:0"
         id="path1622" />
      <path
         d="m -200.22226,12.961623 h 2.5666 q 2.56659,0 3.47093,0.198094 0.91295,0.198093 1.48139,1.016303 0.57706,0.809598 0.57706,2.592437 0,1.627808 -0.4048,2.187637 -0.4048,0.559828 -1.59336,0.671794 1.0766,0.266995 1.44694,0.714857 0.37035,0.447863 0.45648,0.826824 0.0947,0.370348 0.0947,2.058446 v 3.677642 h -3.36758 V 22.272 q 0,-1.119657 -0.18087,-1.386652 -0.17226,-0.266995 -0.92157,-0.266995 v 6.287304 h -3.62596 z m 3.62596,2.385731 v 3.100588 q 0.61151,0 0.85267,-0.163642 0.24977,-0.172255 0.24977,-1.093819 v -0.766534 q 0,-0.663182 -0.24116,-0.869887 -0.23255,-0.206706 -0.86128,-0.206706 z"
         style="font-style:normal;font-variant:normal;font-weight:normal;font-stretch:normal;font-size:17.6389px;font-family:Impact;-inkscape-font-specification:Impact;fill:#ffffff;fill-opacity:1;stroke:#7a7a7a;stroke-width:0.264583;stroke-opacity:0"
         id="path1624" />
      <path
         d="m -182.62642,12.961623 v 13.944034 h -3.17811 l -1.88619,-6.33898 v 6.33898 h -3.03168 V 12.961623 h 3.03168 l 2.03261,6.278691 v -6.278691 z"
         style="font-style:normal;font-variant:normal;font-weight:normal;font-stretch:normal;font-size:17.6389px;font-family:Impact;-inkscape-font-specification:Impact;fill:#ffffff;fill-opacity:1;stroke:#7a7a7a;stroke-width:0.264583;stroke-opacity:0"
         id="path1626" />
      <path
         d="m -173.4883,17.181868 h -3.36758 v -1.033529 q 0,-0.723471 -0.1292,-0.921564 -0.12919,-0.198093 -0.43063,-0.198093 -0.32729,0 -0.49954,0.266995 -0.16364,0.266995 -0.16364,0.809598 0,0.697633 0.18948,1.050755 0.18086,0.353123 1.02491,0.852662 2.42018,1.438328 3.04891,2.359892 0.62873,0.921563 0.62873,2.971397 0,1.490004 -0.35312,2.196249 -0.34451,0.706245 -1.34359,1.188559 -0.99907,0.473701 -2.32544,0.473701 -1.45555,0 -2.48908,-0.551216 -1.02492,-0.551215 -1.34359,-1.403877 -0.31867,-0.852662 -0.31867,-2.420181 v -0.912951 h 3.36758 v 1.696711 q 0,0.783759 0.13781,1.007691 0.14641,0.223931 0.50815,0.223931 0.36173,0 0.53399,-0.28422 0.18087,-0.284221 0.18087,-0.844049 0,-1.231623 -0.3359,-1.610584 -0.34451,-0.37896 -1.69671,-1.266073 -1.3522,-0.895725 -1.79145,-1.300524 -0.43925,-0.404799 -0.73209,-1.119657 -0.28422,-0.714858 -0.28422,-1.825902 0,-1.601971 0.4048,-2.342667 0.41341,-0.740696 1.32637,-1.154107 0.91295,-0.422025 2.20486,-0.422025 1.41249,0 2.40295,0.456476 0.99908,0.456475 1.31775,1.154107 0.32729,0.68902 0.32729,2.35128 z"
         style="font-style:normal;font-variant:normal;font-weight:normal;font-stretch:normal;font-size:17.6389px;font-family:Impact;-inkscape-font-specification:Impact;fill:#ffffff;fill-opacity:1;stroke:#7a7a7a;stroke-width:0.264583;stroke-opacity:0"
         id="path1628" />
      <path
         d="m -164.74637,12.961623 v 2.79053 h -2.15318 v 11.153504 h -3.62597 V 15.752153 h -2.14457 v -2.79053 z"
         style="font-style:normal;font-variant:normal;font-weight:normal;font-stretch:normal;font-size:17.6389px;font-family:Impact;-inkscape-font-specification:Impact;fill:#ffffff;fill-opacity:1;stroke:#7a7a7a;stroke-width:0.264583;stroke-opacity:0"
         id="path1630" />
    </g>
    <g
       aria-label="SCHULE"
       transform="rotate(-90)"
       id="text848"
       style="font-size:17.6389px;line-height:1.25;font-family:sans-serif;letter-spacing:0px;word-spacing:0px;fill:#ffffff;fill-opacity:1;stroke:#7a7a7a;stroke-width:0.264583;stroke-opacity:0"
       inkscape:transform-center-x="42.838792"
       inkscape:transform-center-y="-96.89139">
      <path
         d="m -195.19081,183.31575 h -3.36758 v -1.03353 q 0,-0.72347 -0.12919,-0.92157 -0.12919,-0.19809 -0.43064,-0.19809 -0.32728,0 -0.49954,0.267 -0.16364,0.26699 -0.16364,0.80959 0,0.69764 0.18948,1.05076 0.18087,0.35312 1.02492,0.85266 2.42018,1.43833 3.04891,2.35989 0.62873,0.92157 0.62873,2.9714 0,1.49 -0.35313,2.19625 -0.34451,0.70624 -1.34358,1.18856 -0.99908,0.4737 -2.32544,0.4737 -1.45556,0 -2.48909,-0.55122 -1.02491,-0.55121 -1.34359,-1.40387 -0.31867,-0.85267 -0.31867,-2.42019 v -0.91295 h 3.36759 v 1.69671 q 0,0.78376 0.1378,1.0077 0.14642,0.22393 0.50815,0.22393 0.36174,0 0.53399,-0.28422 0.18087,-0.28422 0.18087,-0.84405 0,-1.23163 -0.3359,-1.61059 -0.34451,-0.37896 -1.69671,-1.26607 -1.3522,-0.89572 -1.79145,-1.30052 -0.43925,-0.4048 -0.73208,-1.11966 -0.28422,-0.71486 -0.28422,-1.8259 0,-1.60197 0.4048,-2.34267 0.41341,-0.74069 1.32636,-1.15411 0.91295,-0.42202 2.20486,-0.42202 1.41249,0 2.40296,0.45647 0.99908,0.45648 1.31775,1.15411 0.32728,0.68902 0.32728,2.35128 z"
         style="font-style:normal;font-variant:normal;font-weight:normal;font-stretch:normal;font-size:17.6389px;font-family:Impact;-inkscape-font-specification:Impact;fill:#ffffff;fill-opacity:1;stroke:#7a7a7a;stroke-width:0.264583;stroke-opacity:0"
         id="path1609" />
      <path
         d="m -185.28615,185.1761 h -3.62597 v -2.42879 q 0,-1.05937 -0.12058,-1.31775 -0.11196,-0.267 -0.50815,-0.267 -0.44786,0 -0.56844,0.31867 -0.12058,0.31867 -0.12058,1.37804 v 6.47679 q 0,1.0163 0.12058,1.32636 0.12058,0.31006 0.5426,0.31006 0.4048,0 0.52538,-0.31006 0.12919,-0.31006 0.12919,-1.45556 v -1.74838 h 3.62597 v 0.5426 q 0,2.1618 -0.31006,3.06614 -0.30145,0.90434 -1.3522,1.58474 -1.04214,0.68041 -2.57521,0.68041 -1.59336,0 -2.62689,-0.57706 -1.03353,-0.57705 -1.36943,-1.59335 -0.33589,-1.02492 -0.33589,-3.07475 v -4.07383 q 0,-1.50723 0.10335,-2.25654 0.10335,-0.75792 0.6115,-1.45555 0.51677,-0.69764 1.42111,-1.09382 0.91295,-0.4048 2.09289,-0.4048 1.60197,0 2.64412,0.62012 1.04214,0.62011 1.36942,1.55029 0.32729,0.92156 0.32729,2.87666 z"
         style="font-style:normal;font-variant:normal;font-weight:normal;font-stretch:normal;font-size:17.6389px;font-family:Impact;-inkscape-font-specification:Impact;fill:#ffffff;fill-opacity:1;stroke:#7a7a7a;stroke-width:0.264583;stroke-opacity:0"
         id="path1611" />
      <path
         d="m -175.64849,179.0955 v 13.94404 h -3.62597 v -5.85667 h -1.0852 v 5.85667 h -3.62597 V 179.0955 h 3.62597 v 4.98678 h 1.0852 v -4.98678 z"
         style="font-style:normal;font-variant:normal;font-weight:normal;font-stretch:normal;font-size:17.6389px;font-family:Impact;-inkscape-font-specification:Impact;fill:#ffffff;fill-opacity:1;stroke:#7a7a7a;stroke-width:0.264583;stroke-opacity:0"
         id="path1613" />
      <path
         d="m -165.95054,179.0955 v 9.31899 q 0,1.58475 -0.10335,2.2307 -0.10336,0.63735 -0.61151,1.31775 -0.50815,0.6718 -1.34359,1.02492 -0.82682,0.34451 -1.95509,0.34451 -1.24885,0 -2.20486,-0.41341 -0.95602,-0.41341 -1.42972,-1.0766 -0.4737,-0.66318 -0.55983,-1.39526 -0.0861,-0.7407 -0.0861,-3.10059 v -8.25101 h 3.62596 v 10.45587 q 0,0.91295 0.0947,1.17134 0.10335,0.24977 0.4048,0.24977 0.34451,0 0.43925,-0.27561 0.10335,-0.28422 0.10335,-1.32636 V 179.0955 Z"
         style="font-style:normal;font-variant:normal;font-weight:normal;font-stretch:normal;font-size:17.6389px;font-family:Impact;-inkscape-font-specification:Impact;fill:#ffffff;fill-opacity:1;stroke:#7a7a7a;stroke-width:0.264583;stroke-opacity:0"
         id="path1615" />
      <path
         d="m -160.9207,179.0955 v 11.15351 h 2.20486 v 2.79053 h -5.83082 V 179.0955 Z"
         style="font-style:normal;font-variant:normal;font-weight:normal;font-stretch:normal;font-size:17.6389px;font-family:Impact;-inkscape-font-specification:Impact;fill:#ffffff;fill-opacity:1;stroke:#7a7a7a;stroke-width:0.264583;stroke-opacity:0"
         id="path1617" />
      <path
         d="m -157.83734,179.0955 h 6.04615 v 2.79053 h -2.42018 v 2.64411 h 2.26515 v 2.65273 h -2.26515 v 3.06614 h 2.66134 v 2.79053 h -6.28731 z"
         style="font-style:normal;font-variant:normal;font-weight:normal;font-stretch:normal;font-size:17.6389px;font-family:Impact;-inkscape-font-specification:Impact;fill:#ffffff;fill-opacity:1;stroke:#7a7a7a;stroke-width:0.264583;stroke-opacity:0"
         id="path1619" />
    </g>
  </g>
</svg>
